<svg width="289" height="217" viewBox="0 0 289 217" fill="none" xmlns="http://www.w3.org/2000/svg">
<g clip-path="url(#clip0_260_5)">
<mask id="mask0_260_5" style="mask-type:luminance" maskUnits="userSpaceOnUse" x="0" y="0" width="289" height="217">
<path d="M0 0H289V217H0V0Z" fill="white"/>
</mask>
<g mask="url(#mask0_260_5)">
<path d="M107.342 108.662C107.342 117.151 100.468 124.033 91.9884 124.033C83.5091 124.033 76.6353 117.151 76.6353 108.662C76.6353 100.173 83.5091 93.2914 91.9884 93.2914C100.468 93.2914 107.342 100.173 107.342 108.662Z" fill="#1B679A"/>
<path d="M106.072 107.829C106.072 115.094 100.19 120.984 92.9331 120.984C85.6763 120.984 79.7937 115.094 79.7937 107.829C79.7937 100.564 85.6763 94.6746 92.9331 94.6746C100.19 94.6746 106.072 100.564 106.072 107.829Z" fill="#378DB3"/>
<path d="M104.51 107.217C104.51 113.248 99.6265 118.137 93.6027 118.137C87.5792 118.137 82.6958 113.248 82.6958 107.217C82.6958 101.187 87.5792 96.2978 93.6027 96.2978C99.6265 96.2978 104.51 101.187 104.51 107.217Z" fill="#3FB0CB"/>
<path d="M102.936 106.447C102.936 111.163 99.1175 114.986 94.4064 114.986C89.6957 114.986 85.877 111.163 85.877 106.447C85.877 101.731 89.6957 97.9071 94.4064 97.9071C99.1175 97.9071 102.936 101.731 102.936 106.447Z" fill="#5DCAE5"/>
<path d="M101.428 105.657C101.428 109.129 98.6168 111.944 95.1488 111.944C91.6811 111.944 88.8699 109.129 88.8699 105.657C88.8699 102.185 91.6811 99.3709 95.1488 99.3709C98.6168 99.3709 101.428 102.185 101.428 105.657Z" fill="#85D3E8"/>
<path d="M99.7782 104.883C99.7782 107.039 98.033 108.786 95.8799 108.786C93.7269 108.786 91.9817 107.039 91.9817 104.883C91.9817 102.727 93.7269 100.98 95.8799 100.98C98.033 100.98 99.7782 102.727 99.7782 104.883Z" fill="#A5DEF1"/>
<path d="M98.2184 104.2C98.2184 105.048 97.5313 105.736 96.6838 105.736C95.8363 105.736 95.1492 105.048 95.1492 104.2C95.1492 103.351 95.8363 102.663 96.6838 102.663C97.5313 102.663 98.2184 103.351 98.2184 104.2Z" fill="white"/>
<path d="M92.771 95.1312C85.728 95.1312 79.9986 100.868 79.9986 107.918C79.9986 114.969 85.728 120.705 92.771 120.705C99.8139 120.705 105.544 114.969 105.544 107.918C105.544 100.868 99.8139 95.1312 92.771 95.1312ZM92.771 121.262C85.422 121.262 79.4434 115.276 79.4434 107.918C79.4434 100.561 85.422 94.5757 92.771 94.5757C100.12 94.5757 106.099 100.561 106.099 107.918C106.099 115.276 100.12 121.262 92.771 121.262Z" fill="white"/>
<path d="M93.5535 96.6536C87.7587 96.6536 83.0444 101.373 83.0444 107.175C83.0444 112.976 87.7587 117.696 93.5535 117.696C99.3483 117.696 104.063 112.976 104.063 107.175C104.063 101.373 99.3483 96.6536 93.5535 96.6536ZM93.5535 118.172C87.4964 118.172 82.5686 113.239 82.5686 107.175C82.5686 101.111 87.4964 96.1772 93.5535 96.1772C99.6106 96.1772 104.538 101.111 104.538 107.175C104.538 113.239 99.6106 118.172 93.5535 118.172Z" fill="#D2ECF3"/>
<path d="M94.3363 98.1758C89.7896 98.1758 86.0907 101.879 86.0907 106.431C86.0907 110.983 89.7896 114.686 94.3363 114.686C98.883 114.686 102.582 110.983 102.582 106.431C102.582 101.879 98.883 98.1758 94.3363 98.1758ZM94.3363 115.083C89.571 115.083 85.6941 111.202 85.6941 106.431C85.6941 101.66 89.571 97.7787 94.3363 97.7787C99.1015 97.7787 102.978 101.66 102.978 106.431C102.978 111.202 99.1015 115.083 94.3363 115.083Z" fill="#C7E9F3"/>
<path d="M95.1187 99.6983C91.8201 99.6983 89.1364 102.385 89.1364 105.688C89.1364 108.99 91.8201 111.676 95.1187 111.676C98.4173 111.676 101.101 108.99 101.101 105.688C101.101 102.385 98.4173 99.6983 95.1187 99.6983ZM95.1187 111.994C91.6453 111.994 88.8196 109.165 88.8196 105.688C88.8196 102.21 91.6453 99.3808 95.1187 99.3808C98.5921 99.3808 101.418 102.21 101.418 105.688C101.418 109.165 98.5921 111.994 95.1187 111.994Z" fill="#C4E8F2"/>
<path d="M95.9014 101.221C93.8509 101.221 92.1826 102.891 92.1826 104.944C92.1826 106.996 93.8509 108.667 95.9014 108.667C97.9518 108.667 99.6201 106.996 99.6201 104.944C99.6201 102.891 97.9518 101.221 95.9014 101.221ZM95.9014 108.905C93.7194 108.905 91.9446 107.128 91.9446 104.944C91.9446 102.759 93.7194 100.983 95.9014 100.983C98.0829 100.983 99.8578 102.759 99.8578 104.944C99.8578 107.128 98.0829 108.905 95.9014 108.905Z" fill="#C8EAF5"/>
</g>
<path d="M115.12 116.927V100.036H130.303V116.927H125.845V104.018H119.578V116.927H115.12Z" fill="#1B679A"/>
<path d="M134.723 116.927V100.036H146.895V104.018H139.182V116.927H134.723Z" fill="#1B679A"/>
<mask id="mask1_260_5" style="mask-type:luminance" maskUnits="userSpaceOnUse" x="0" y="0" width="289" height="217">
<path d="M0 0H289V217H0V0Z" fill="white"/>
</mask>
<g mask="url(#mask1_260_5)">
<path d="M158.598 115.105C158.18 115.644 157.734 116.074 157.26 116.395C156.786 116.717 156.292 116.946 155.778 117.083C155.264 117.22 154.717 117.288 154.139 117.288C153.705 117.288 153.263 117.244 152.813 117.156C152.363 117.067 151.906 116.958 151.44 116.83V113.138C151.729 113.251 152.046 113.335 152.392 113.391C152.737 113.448 153.07 113.476 153.392 113.476C153.922 113.476 154.372 113.391 154.742 113.223C155.111 113.054 155.392 112.752 155.585 112.318L155.85 111.738L149.271 100.036H154.211L157.923 107.733L160.96 100.036H165.901L159.803 113.066C159.417 113.886 159.015 114.566 158.598 115.105Z" fill="#1B679A"/>
<path d="M182.253 100.036V104.017H177.505V116.927H173.047V104.017H168.274V100.036H182.253Z" fill="#1B679A"/>
<path d="M196.121 116.927V110.026C196.121 109.559 196.128 109.081 196.145 108.59C196.16 108.099 196.185 107.653 196.218 107.251L189.614 116.927H185.396V100.036H189.855V106.937C189.855 107.404 189.846 107.886 189.831 108.385C189.815 108.884 189.791 109.334 189.759 109.736L196.362 100.036H200.579V116.927H196.121Z" fill="#1B679A"/>
</g>
</g>
<defs>
<clipPath id="clip0_260_5">
<rect width="289" height="217" fill="white"/>
</clipPath>
</defs>
</svg>
